<svg width="80" height="25" viewBox="0 0 80 25" fill="none" xmlns="http://www.w3.org/2000/svg">
<path d="M32.382 10.716C32.778 10.716 33.126 10.796 33.426 10.956C33.73 11.112 33.964 11.342 34.128 11.646C34.296 11.946 34.38 12.308 34.38 12.732V15H33.192V14.07H31.554V15H30.384V12.732C30.384 12.308 30.466 11.946 30.63 11.646C30.798 11.342 31.032 11.112 31.332 10.956C31.636 10.796 31.986 10.716 32.382 10.716ZM33.192 13.152V12.63C33.192 12.322 33.118 12.09 32.97 11.934C32.822 11.778 32.624 11.7 32.376 11.7C32.124 11.7 31.924 11.778 31.776 11.934C31.628 12.09 31.554 12.322 31.554 12.63V13.152H33.192ZM38.5857 10.548V15H37.4997V14.676C37.2877 14.928 36.9697 15.054 36.5457 15.054C36.2497 15.054 35.9797 14.986 35.7357 14.85C35.4917 14.71 35.2977 14.512 35.1537 14.256C35.0137 14 34.9437 13.704 34.9437 13.368C34.9437 13.032 35.0137 12.738 35.1537 12.486C35.2977 12.23 35.4917 12.034 35.7357 11.898C35.9797 11.762 36.2497 11.694 36.5457 11.694C36.9337 11.694 37.2337 11.806 37.4457 12.03V10.548H38.5857ZM36.7857 14.148C36.9817 14.148 37.1437 14.08 37.2717 13.944C37.3997 13.804 37.4637 13.612 37.4637 13.368C37.4637 13.128 37.3997 12.94 37.2717 12.804C37.1477 12.668 36.9857 12.6 36.7857 12.6C36.5857 12.6 36.4217 12.668 36.2937 12.804C36.1657 12.94 36.1017 13.128 36.1017 13.368C36.1017 13.612 36.1657 13.804 36.2937 13.944C36.4217 14.08 36.5857 14.148 36.7857 14.148ZM42.7751 10.548V15H41.6891V14.676C41.4771 14.928 41.1591 15.054 40.7351 15.054C40.4391 15.054 40.1691 14.986 39.9251 14.85C39.6811 14.71 39.4871 14.512 39.3431 14.256C39.2031 14 39.1331 13.704 39.1331 13.368C39.1331 13.032 39.2031 12.738 39.3431 12.486C39.4871 12.23 39.6811 12.034 39.9251 11.898C40.1691 11.762 40.4391 11.694 40.7351 11.694C41.1231 11.694 41.4231 11.806 41.6351 12.03V10.548H42.7751ZM40.9751 14.148C41.1711 14.148 41.3331 14.08 41.4611 13.944C41.5891 13.804 41.6531 13.612 41.6531 13.368C41.6531 13.128 41.5891 12.94 41.4611 12.804C41.3371 12.668 41.1751 12.6 40.9751 12.6C40.7751 12.6 40.6111 12.668 40.4831 12.804C40.3551 12.94 40.2911 13.128 40.2911 13.368C40.2911 13.612 40.3551 13.804 40.4831 13.944C40.6111 14.08 40.7751 14.148 40.9751 14.148ZM48.5367 12.12C48.1847 11.924 47.8267 11.794 47.4627 11.73V15H46.2747V11.73C45.9027 11.794 45.5447 11.924 45.2007 12.12L44.8047 11.256C45.0967 11.08 45.4187 10.946 45.7707 10.854C46.1267 10.762 46.4927 10.716 46.8687 10.716C47.2447 10.716 47.6087 10.762 47.9607 10.854C48.3167 10.946 48.6407 11.08 48.9327 11.256L48.5367 12.12ZM50.5195 15.054C50.1715 15.054 49.8575 14.982 49.5775 14.838C49.2975 14.694 49.0775 14.494 48.9175 14.238C48.7615 13.982 48.6835 13.692 48.6835 13.368C48.6835 13.048 48.7615 12.76 48.9175 12.504C49.0775 12.248 49.2955 12.05 49.5715 11.91C49.8515 11.766 50.1675 11.694 50.5195 11.694C50.8715 11.694 51.1875 11.766 51.4675 11.91C51.7475 12.05 51.9655 12.248 52.1215 12.504C52.2775 12.756 52.3555 13.044 52.3555 13.368C52.3555 13.692 52.2775 13.982 52.1215 14.238C51.9655 14.494 51.7475 14.694 51.4675 14.838C51.1875 14.982 50.8715 15.054 50.5195 15.054ZM50.5195 14.148C50.7195 14.148 50.8835 14.08 51.0115 13.944C51.1395 13.804 51.2035 13.612 51.2035 13.368C51.2035 13.128 51.1395 12.94 51.0115 12.804C50.8835 12.668 50.7195 12.6 50.5195 12.6C50.3195 12.6 50.1555 12.668 50.0275 12.804C49.8995 12.94 49.8355 13.128 49.8355 13.368C49.8355 13.612 49.8995 13.804 50.0275 13.944C50.1555 14.08 50.3195 14.148 50.5195 14.148ZM56.7777 15.084C56.3377 15.084 55.9417 14.992 55.5897 14.808C55.2417 14.62 54.9677 14.36 54.7677 14.028C54.5677 13.696 54.4677 13.32 54.4677 12.9C54.4677 12.48 54.5677 12.104 54.7677 11.772C54.9677 11.44 55.2417 11.182 55.5897 10.998C55.9417 10.81 56.3377 10.716 56.7777 10.716C57.1617 10.716 57.5077 10.784 57.8157 10.92C58.1237 11.056 58.3797 11.252 58.5837 11.508L57.8277 12.192C57.5557 11.864 57.2257 11.7 56.8377 11.7C56.6097 11.7 56.4057 11.75 56.2257 11.85C56.0497 11.95 55.9117 12.092 55.8117 12.276C55.7157 12.456 55.6677 12.664 55.6677 12.9C55.6677 13.136 55.7157 13.346 55.8117 13.53C55.9117 13.71 56.0497 13.85 56.2257 13.95C56.4057 14.05 56.6097 14.1 56.8377 14.1C57.2257 14.1 57.5557 13.936 57.8277 13.608L58.5837 14.292C58.3797 14.548 58.1237 14.744 57.8157 14.88C57.5077 15.016 57.1617 15.084 56.7777 15.084ZM62.3978 11.748V15H61.3118V14.676C61.0998 14.928 60.7798 15.054 60.3518 15.054C60.0558 15.054 59.7858 14.986 59.5418 14.85C59.3018 14.71 59.1098 14.512 58.9658 14.256C58.8258 14 58.7558 13.704 58.7558 13.368C58.7558 13.032 58.8258 12.738 58.9658 12.486C59.1098 12.23 59.3018 12.034 59.5418 11.898C59.7858 11.762 60.0558 11.694 60.3518 11.694C60.7358 11.694 61.0378 11.806 61.2578 12.03V11.748H62.3978ZM60.5918 14.148C60.7918 14.148 60.9558 14.08 61.0838 13.944C61.2118 13.804 61.2758 13.612 61.2758 13.368C61.2758 13.128 61.2118 12.94 61.0838 12.804C60.9558 12.668 60.7918 12.6 60.5918 12.6C60.3918 12.6 60.2278 12.668 60.0998 12.804C59.9718 12.94 59.9078 13.128 59.9078 13.368C59.9078 13.612 59.9718 13.804 60.0998 13.944C60.2278 14.08 60.3918 14.148 60.5918 14.148ZM64.2176 12.138C64.3336 11.99 64.4836 11.88 64.6676 11.808C64.8556 11.732 65.0696 11.694 65.3096 11.694V12.72C65.2056 12.708 65.1196 12.702 65.0516 12.702C64.8076 12.702 64.6156 12.768 64.4756 12.9C64.3396 13.032 64.2716 13.234 64.2716 13.506V15H63.1316V11.748H64.2176V12.138ZM67.8741 14.868C67.7781 14.928 67.6601 14.974 67.5201 15.006C67.3841 15.038 67.2381 15.054 67.0821 15.054C66.6581 15.054 66.3321 14.95 66.1041 14.742C65.8801 14.534 65.7681 14.224 65.7681 13.812V11.022H66.9081V11.868H67.6461V12.72H66.9081V13.8C66.9081 13.92 66.9381 14.012 66.9981 14.076C67.0581 14.14 67.1401 14.172 67.2441 14.172C67.3761 14.172 67.4921 14.138 67.5921 14.07L67.8741 14.868Z" fill="white"/>
<path d="M11 7.36667C11 7.26942 11.0457 7.17616 11.1269 7.10739C11.2082 7.03863 11.3184 7 11.4333 7H12.7334C12.8301 7.00002 12.9239 7.02739 13.0001 7.07775C13.0763 7.12811 13.1303 7.19857 13.1537 7.27793L13.5047 8.46667H23.5671C23.6307 8.46672 23.6935 8.47862 23.7511 8.50154C23.8087 8.52445 23.8596 8.55782 23.9002 8.59926C23.9408 8.6407 23.9702 8.6892 23.9861 8.74131C24.0021 8.79343 24.0043 8.84788 23.9926 8.9008L22.6926 14.7675C22.674 14.8515 22.6213 14.9274 22.5436 14.982C22.4659 15.0366 22.368 15.0666 22.267 15.0667H14.4668C14.3657 15.0666 14.2679 15.0366 14.1902 14.982C14.1125 14.9274 14.0598 14.8515 14.0412 14.7675L12.7421 8.9118L12.3954 7.73333H11.4333C11.3184 7.73333 11.2082 7.6947 11.1269 7.62594C11.0457 7.55718 11 7.46391 11 7.36667ZM13.6885 9.2L14.8265 14.3333H21.9073L23.0453 9.2H13.6885ZM15.3335 15.0667C14.8737 15.0667 14.4329 15.2212 14.1078 15.4962C13.7827 15.7713 13.6001 16.1443 13.6001 16.5333C13.6001 16.9223 13.7827 17.2954 14.1078 17.5704C14.4329 17.8455 14.8737 18 15.3335 18C15.7932 18 16.2341 17.8455 16.5592 17.5704C16.8842 17.2954 17.0669 16.9223 17.0669 16.5333C17.0669 16.1443 16.8842 15.7713 16.5592 15.4962C16.2341 15.2212 15.7932 15.0667 15.3335 15.0667ZM21.4003 15.0667C20.9406 15.0667 20.4997 15.2212 20.1746 15.4962C19.8496 15.7713 19.6669 16.1443 19.6669 16.5333C19.6669 16.9223 19.8496 17.2954 20.1746 17.5704C20.4997 17.8455 20.9406 18 21.4003 18C21.86 18 22.3009 17.8455 22.626 17.5704C22.9511 17.2954 23.1337 16.9223 23.1337 16.5333C23.1337 16.1443 22.9511 15.7713 22.626 15.4962C22.3009 15.2212 21.86 15.0667 21.4003 15.0667ZM15.3335 15.8C15.5633 15.8 15.7838 15.8773 15.9463 16.0148C16.1088 16.1523 16.2002 16.3388 16.2002 16.5333C16.2002 16.7278 16.1088 16.9144 15.9463 17.0519C15.7838 17.1894 15.5633 17.2667 15.3335 17.2667C15.1036 17.2667 14.8832 17.1894 14.7206 17.0519C14.5581 16.9144 14.4668 16.7278 14.4668 16.5333C14.4668 16.3388 14.5581 16.1523 14.7206 16.0148C14.8832 15.8773 15.1036 15.8 15.3335 15.8ZM21.4003 15.8C21.6302 15.8 21.8506 15.8773 22.0132 16.0148C22.1757 16.1523 22.267 16.3388 22.267 16.5333C22.267 16.7278 22.1757 16.9144 22.0132 17.0519C21.8506 17.1894 21.6302 17.2667 21.4003 17.2667C21.1705 17.2667 20.95 17.1894 20.7875 17.0519C20.6249 16.9144 20.5336 16.7278 20.5336 16.5333C20.5336 16.3388 20.6249 16.1523 20.7875 16.0148C20.95 15.8773 21.1705 15.8 21.4003 15.8Z" fill="white"/>
</svg>
