<svg width="22" height="22" viewBox="0 0 22 22" fill="none" xmlns="http://www.w3.org/2000/svg">
<path d="M5.48028 16.7478C7.14889 18.0916 9.04209 18.6495 11.1599 18.4216C13.2776 18.1937 15.0084 17.245 16.352 15.5755C17.6957 13.906 18.2537 12.0128 18.0258 9.89589C17.798 7.77902 16.8493 6.04829 15.1797 4.70371L14.7845 4.38545C14.659 4.28442 14.5298 4.20098 14.3966 4.13514C14.4449 5.53907 14.255 6.91165 13.8268 8.25286C13.3986 9.59407 12.7348 10.8225 11.8355 11.9382C10.9362 13.0539 9.87704 13.9643 8.65804 14.6695C7.43905 15.3747 6.13898 15.8529 4.75784 16.104C4.85054 16.22 4.95963 16.3285 5.08509 16.4296L5.48028 16.7478ZM4.26786 18.2533C3.82875 17.8997 3.425 17.5022 3.05662 17.0607C2.68823 16.6193 2.37403 16.1491 2.11401 15.6501C2.02652 15.4763 1.98939 15.2912 2.0026 15.0951C2.01581 14.8989 2.08304 14.7255 2.20429 14.5749C2.29522 14.462 2.40619 14.3756 2.5372 14.3156C2.66821 14.2557 2.81421 14.2285 2.9752 14.234C4.40912 14.2513 5.76859 13.95 7.05362 13.3303C8.33865 12.7105 9.43077 11.8424 10.33 10.7258C11.2292 9.60918 11.8391 8.35767 12.1598 6.97123C12.4805 5.58479 12.4842 4.18671 12.1708 2.77698C12.1436 2.63098 12.1454 2.48759 12.176 2.34681C12.2066 2.20603 12.2674 2.07918 12.3584 1.96626C12.4796 1.81571 12.6316 1.71064 12.8145 1.65106C12.9973 1.59148 13.1827 1.58569 13.3708 1.63369C13.9262 1.79147 14.4589 2.00325 14.9687 2.26906C15.4785 2.53486 15.953 2.84457 16.3921 3.1982C17.4334 4.03679 18.2528 5.0226 18.8502 6.1556C19.4476 7.28861 19.8124 8.4664 19.9447 9.68898C20.077 10.9115 19.9719 12.1402 19.6294 13.3751C19.2869 14.6099 18.6963 15.7475 17.8576 16.7879C17.0189 17.8283 16.0331 18.6477 14.9002 19.246C13.7672 19.8443 12.5895 20.2091 11.3668 20.3405C10.1441 20.4719 8.91542 20.3668 7.6807 20.0252C6.44598 19.6835 5.30836 19.0929 4.26786 18.2533Z" fill="white"/>
<path d="M5.48028 16.7478C7.14889 18.0916 9.04209 18.6495 11.1599 18.4216C13.2776 18.1937 15.0084 17.245 16.352 15.5755C17.6957 13.906 18.2537 12.0128 18.0258 9.89589C17.798 7.77902 16.8493 6.04829 15.1797 4.70371L14.7845 4.38545C14.659 4.28442 14.5298 4.20098 14.3966 4.13514C14.4449 5.53907 14.255 6.91165 13.8268 8.25286C13.3986 9.59407 12.7348 10.8225 11.8355 11.9382C10.9362 13.0539 9.87704 13.9643 8.65804 14.6695C7.43905 15.3747 6.13898 15.8529 4.75784 16.104C4.85054 16.22 4.95963 16.3285 5.08509 16.4296L5.48028 16.7478Z" fill="white"/>
</svg>
