<svg width="45" height="35" viewBox="0 0 45 35" fill="none" xmlns="http://www.w3.org/2000/svg">
<g clip-path="url(#clip0_19555_35915)">
<g filter="url(#filter0_d_19555_35915)">
<path d="M37.8484 11.3L34.5204 9.27857L33.9386 5.58967C33.8403 4.9319 33.2076 4.46973 32.496 4.50689L28.4057 4.72378L25.5633 2.15041C25.3197 1.93029 24.9934 1.8028 24.6451 1.79155C24.2967 1.78031 23.9499 1.88607 23.6688 2.08925L20.3964 4.49703L16.3831 4.03727C15.6693 3.95196 14.9713 4.38211 14.7649 5.02447L13.5432 8.65555L9.88814 10.4669C9.23672 10.789 8.91066 11.4903 9.1528 12.1238L10.4618 15.6073L8.56628 19.0195C8.23067 19.6275 8.41942 20.3435 9.01117 20.7071L12.3392 22.7285L12.9243 26.4302C13.0226 27.088 13.6553 27.5502 14.3669 27.513L18.4573 27.2961L21.2962 29.8567C21.8065 30.3101 22.6118 30.344 23.2048 29.9142L26.4632 27.5101L30.4765 27.9698C31.1902 28.0552 31.8883 27.625 32.0946 26.9826L33.299 23.3425L36.9647 21.5147C37.6161 21.1925 37.9247 20.4822 37.686 19.8615L36.3735 16.3652L38.2725 12.9658C38.6289 12.3796 38.4401 11.6636 37.8484 11.3Z" fill="#E50000"/>
</g>
<g filter="url(#filter1_d_19555_35915)">
<path d="M19.5777 13.5907L21.0608 19.2167L19.9071 19.5208L16.8122 16.864L16.7765 16.8734L17.6325 20.1205L16.2727 20.4789L14.7896 14.853L15.9598 14.5445L19.0285 17.2023L19.0752 17.19L18.2207 13.9484L19.5777 13.5907ZM23.9092 18.551C23.4679 18.6673 23.064 18.6807 22.6977 18.5913C22.3327 18.4995 22.0214 18.3142 21.7638 18.0354C21.5075 17.7543 21.3202 17.3894 21.202 16.9407C21.0871 16.5049 21.0727 16.1013 21.1589 15.7299C21.2446 15.3567 21.4202 15.0382 21.6856 14.7743C21.9504 14.5086 22.2953 14.3198 22.7202 14.2077C23.0206 14.1286 23.3076 14.1028 23.5813 14.1306C23.8549 14.1583 24.1066 14.2399 24.3362 14.3752C24.5658 14.5106 24.7664 14.6996 24.9381 14.9422C25.1093 15.183 25.2405 15.4765 25.3318 15.8226L25.4201 16.1578L21.7528 17.1246L21.5471 16.3444L23.9646 15.7071C23.9251 15.5648 23.8576 15.4464 23.7622 15.3521C23.6669 15.2577 23.5533 15.1947 23.4215 15.1628C23.291 15.1286 23.1517 15.1311 23.0033 15.1702C22.8531 15.2098 22.7275 15.2792 22.6263 15.3783C22.5246 15.4756 22.4542 15.5911 22.415 15.7249C22.3754 15.8568 22.3728 15.9955 22.4073 16.1412L22.6166 16.9351C22.6619 17.1072 22.7357 17.2494 22.8377 17.3615C22.9392 17.4719 23.0617 17.5463 23.2051 17.5849C23.3484 17.6235 23.5062 17.6201 23.6783 17.5747C23.7974 17.5434 23.9011 17.4984 23.9895 17.4398C24.0778 17.3813 24.1484 17.3108 24.2011 17.2283C24.2537 17.1459 24.2852 17.0534 24.2954 16.9508L25.5382 16.6614C25.5598 16.9514 25.5107 17.2219 25.3908 17.4729C25.2722 17.7216 25.0878 17.9396 24.8375 18.127C24.5868 18.3126 24.2774 18.4539 23.9092 18.551ZM27.32 17.5666L25.1088 13.6368L26.4576 13.2812L27.7389 15.8344L27.7746 15.825L27.6718 12.9611L28.9877 12.6143L30.3215 15.133L30.3572 15.1236L30.2019 12.2942L31.5507 11.9386L31.5615 16.4485L30.1248 16.8272L28.8173 14.5424L28.7706 14.5547L28.7595 17.1871L27.32 17.5666Z" fill="white"/>
</g>
</g>
<defs>
<filter id="filter0_d_19555_35915" x="6.40137" y="1.78906" width="34.0508" height="32.4297" filterUnits="userSpaceOnUse" color-interpolation-filters="sRGB">
<feFlood flood-opacity="0" result="BackgroundImageFix"/>
<feColorMatrix in="SourceAlpha" type="matrix" values="0 0 0 0 0 0 0 0 0 0 0 0 0 0 0 0 0 0 127 0" result="hardAlpha"/>
<feOffset dy="2"/>
<feGaussianBlur stdDeviation="1"/>
<feComposite in2="hardAlpha" operator="out"/>
<feColorMatrix type="matrix" values="0 0 0 0 0 0 0 0 0 0 0 0 0 0 0 0 0 0 0.25 0"/>
<feBlend mode="normal" in2="BackgroundImageFix" result="effect1_dropShadow_19555_35915"/>
<feBlend mode="normal" in="SourceGraphic" in2="effect1_dropShadow_19555_35915" result="shape"/>
</filter>
<filter id="filter1_d_19555_35915" x="12.79" y="10.5312" width="21.8936" height="14.0273" filterUnits="userSpaceOnUse" color-interpolation-filters="sRGB">
<feFlood flood-opacity="0" result="BackgroundImageFix"/>
<feColorMatrix in="SourceAlpha" type="matrix" values="0 0 0 0 0 0 0 0 0 0 0 0 0 0 0 0 0 0 127 0" result="hardAlpha"/>
<feOffset dy="2"/>
<feGaussianBlur stdDeviation="1"/>
<feComposite in2="hardAlpha" operator="out"/>
<feColorMatrix type="matrix" values="0 0 0 0 0 0 0 0 0 0 0 0 0 0 0 0 0 0 0.25 0"/>
<feBlend mode="normal" in2="BackgroundImageFix" result="effect1_dropShadow_19555_35915"/>
<feBlend mode="normal" in="SourceGraphic" in2="effect1_dropShadow_19555_35915" result="shape"/>
</filter>
<clipPath id="clip0_19555_35915">
<rect width="45" height="35" fill="white"/>
</clipPath>
</defs>
</svg>
