<svg width="30" height="30" viewBox="0 0 30 30" fill="none" xmlns="http://www.w3.org/2000/svg">
<path fill-rule="evenodd" clip-rule="evenodd" d="M21.8079 7.50293C21.8166 7.50382 21.8249 7.50678 21.8335 7.50806C21.8502 7.51054 21.8664 7.51366 21.8826 7.51758C21.8995 7.52168 21.9161 7.52591 21.9324 7.53149C21.9494 7.53734 21.9659 7.54389 21.9822 7.55127C21.9976 7.55827 22.0122 7.56639 22.0269 7.57471C22.0409 7.58272 22.0546 7.59118 22.0679 7.60034C22.0823 7.61028 22.0962 7.62063 22.1096 7.63184C22.1221 7.64229 22.134 7.65331 22.1455 7.66479C22.1575 7.67677 22.169 7.68913 22.1799 7.70215C22.1912 7.71553 22.2015 7.72949 22.2114 7.7439C22.2206 7.75718 22.229 7.77083 22.2371 7.78491C22.2446 7.79811 22.2518 7.81136 22.2583 7.8252C22.2666 7.84284 22.2739 7.86081 22.2803 7.87939C22.2857 7.89522 22.2901 7.9113 22.2942 7.92773C22.2983 7.94434 22.3011 7.96112 22.3037 7.97827C22.305 7.98712 22.3087 7.99566 22.3096 8.00464L22.3125 8.0625V21.5625C22.3125 21.5945 22.3088 21.6257 22.3037 21.6562C22.3088 21.6868 22.3125 21.718 22.3125 21.75C22.3125 22.0411 22.0913 22.2806 21.8079 22.3096L21.75 22.3125H8.25C7.93934 22.3125 7.6875 22.0607 7.6875 21.75C7.6875 21.718 7.69044 21.6868 7.69556 21.6562C7.69044 21.6257 7.6875 21.5945 7.6875 21.5625V8.0625C7.6875 8.01594 7.69441 7.971 7.70508 7.92773C7.70984 7.90843 7.71596 7.8898 7.72266 7.87134C7.72833 7.85568 7.73397 7.84017 7.74097 7.8252C7.74939 7.80716 7.75931 7.79012 7.76953 7.77319C7.77698 7.76085 7.78389 7.74827 7.79224 7.73657C7.80547 7.71802 7.82084 7.70135 7.83618 7.68457C7.84459 7.67537 7.85208 7.66537 7.86108 7.65674C7.87663 7.64183 7.89371 7.62878 7.91089 7.61572C7.92185 7.60739 7.93227 7.59835 7.94385 7.59082C7.96151 7.57933 7.98056 7.57027 7.99951 7.56079C8.01199 7.55455 8.02388 7.54707 8.03687 7.54175C8.0592 7.5326 8.08278 7.52676 8.10645 7.52051C8.11797 7.51746 8.12907 7.51257 8.14087 7.51025C8.14327 7.50978 8.14579 7.50996 8.14819 7.50952C8.18123 7.50348 8.21522 7.5 8.25 7.5H21.75L21.8079 7.50293Z" fill="#ABFF70"/>
</svg>
