<svg width="30" height="30" viewBox="0 0 30 30" fill="none" xmlns="http://www.w3.org/2000/svg">
<path d="M12.3491 19.6002H9.33026C8.65781 19.6002 8.25 19.2498 8.25 18.7348C8.25 18.019 8.97953 17.3753 9.5949 16.7385C10.0741 16.2449 10.1959 15.2291 10.253 14.4062C10.3031 11.5875 11.0329 9.7631 12.9358 9.0763C13.1791 8.14653 13.9443 7.40234 15.0035 7.40234C16.0551 7.40234 16.8276 8.14653 17.0639 9.0763C18.9741 9.7631 19.6966 11.5875 19.7537 14.4065C19.8038 15.2291 19.9326 16.2449 20.4048 16.7385C21.0272 17.3753 21.75 18.019 21.75 18.7345C21.75 19.2498 21.3492 19.6002 20.6694 19.6002H17.6506C17.5932 20.9738 16.5129 22.1825 15.0035 22.1825C13.4868 22.1825 12.4065 20.9738 12.3491 19.6002Z" fill="#ABFF70"/>
</svg>
