<svg width="30" height="30" viewBox="0 0 30 30" fill="none" xmlns="http://www.w3.org/2000/svg">
<path d="M20.2066 15C20.2066 14.8361 20.1996 14.6794 20.1857 14.5155L21.477 13.5109C21.7547 13.2971 21.831 12.8981 21.6575 12.5846L20.3593 10.2832C20.2761 10.1323 20.1414 10.0183 19.9812 9.96307C19.8211 9.90783 19.6467 9.91529 19.4915 9.984L17.999 10.6324C17.7421 10.4471 17.4714 10.2832 17.1868 10.1479L16.9854 8.502C16.9438 8.14575 16.6453 7.875 16.2982 7.875H13.7088C13.3547 7.875 13.0562 8.14575 13.0146 8.502L12.8132 10.1479C12.5286 10.2832 12.2579 10.4471 12.001 10.6324L10.5085 9.984C10.1891 9.8415 9.81426 9.96975 9.64071 10.2832L8.34254 12.5918C8.16898 12.9053 8.24535 13.2971 8.52303 13.518L9.81426 14.5226C9.78548 14.8426 9.78548 15.1646 9.81426 15.4845L8.52303 16.4891C8.24535 16.7029 8.16898 17.1019 8.34254 17.4154L9.64071 19.7168C9.81426 20.0303 10.1891 20.1585 10.5085 20.016L12.001 19.3676C12.2579 19.5529 12.5286 19.7168 12.8132 19.8521L13.0146 21.498C13.0562 21.8543 13.3547 22.125 13.7018 22.125H16.2912C16.6383 22.125 16.9368 21.8543 16.9785 21.498L17.1798 19.8521C17.4644 19.7168 17.7352 19.5529 17.992 19.3676L19.4846 20.016C19.8039 20.1585 20.1788 20.0303 20.3524 19.7168L21.6505 17.4154C21.8241 17.1019 21.7477 16.71 21.47 16.4891L20.1788 15.4845C20.1996 15.3206 20.2066 15.1639 20.2066 15ZM15.0278 17.4937C13.6879 17.4937 12.598 16.3751 12.598 15C12.598 13.6249 13.6879 12.5062 15.0278 12.5062C16.3676 12.5062 17.4575 13.6249 17.4575 15C17.4575 16.3751 16.3676 17.4937 15.0278 17.4937Z" fill="#ABFF70"/>
<path d="M15.0278 17.4937C13.6879 17.4937 12.598 16.3751 12.598 15C12.598 13.6249 13.6879 12.5062 15.0278 12.5062C16.3676 12.5062 17.4575 13.6249 17.4575 15C17.4575 16.3751 16.3676 17.4937 15.0278 17.4937Z" fill="#ABFF70"/>
<path d="M20.2066 15C20.2066 14.8361 20.1996 14.6794 20.1857 14.5155L21.477 13.5109C21.7547 13.2971 21.831 12.8981 21.6575 12.5846L20.3593 10.2832C20.2761 10.1323 20.1414 10.0183 19.9812 9.96307C19.8211 9.90783 19.6467 9.91529 19.4915 9.984L17.999 10.6324C17.7421 10.4471 17.4714 10.2832 17.1868 10.1479L16.9854 8.502C16.9438 8.14575 16.6453 7.875 16.2982 7.875H13.7088C13.3547 7.875 13.0562 8.14575 13.0146 8.502L12.8132 10.1479C12.5286 10.2832 12.2579 10.4471 12.001 10.6324L10.5085 9.984C10.1891 9.8415 9.81426 9.96975 9.64071 10.2832L8.34254 12.5918C8.16898 12.9053 8.24535 13.2971 8.52303 13.518L9.81426 14.5226C9.78548 14.8426 9.78548 15.1646 9.81426 15.4845L8.52303 16.4891C8.24535 16.7029 8.16898 17.1019 8.34254 17.4154L9.64071 19.7168C9.81426 20.0303 10.1891 20.1585 10.5085 20.016L12.001 19.3676C12.2579 19.5529 12.5286 19.7168 12.8132 19.8521L13.0146 21.498C13.0562 21.8543 13.3547 22.125 13.7018 22.125H16.2912C16.6383 22.125 16.9368 21.8543 16.9785 21.498L17.1798 19.8521C17.4644 19.7168 17.7352 19.5529 17.992 19.3676L19.4846 20.016C19.8039 20.1585 20.1788 20.0303 20.3524 19.7168L21.6505 17.4154C21.8241 17.1019 21.7477 16.71 21.47 16.4891L20.1788 15.4845C20.1996 15.3206 20.2066 15.1639 20.2066 15ZM15.0278 17.4937C13.6879 17.4937 12.598 16.3751 12.598 15C12.598 13.6249 13.6879 12.5062 15.0278 12.5062C16.3676 12.5062 17.4575 13.6249 17.4575 15C17.4575 16.3751 16.3676 17.4937 15.0278 17.4937Z" stroke="#ABFF70" stroke-width="1.125"/>
<path d="M15.0278 17.4937C13.6879 17.4937 12.598 16.3751 12.598 15C12.598 13.6249 13.6879 12.5062 15.0278 12.5062C16.3676 12.5062 17.4575 13.6249 17.4575 15C17.4575 16.3751 16.3676 17.4937 15.0278 17.4937Z" stroke="#ABFF70" stroke-width="1.125"/>
</svg>
