<svg width="30" height="30" viewBox="0 0 30 30" fill="none" xmlns="http://www.w3.org/2000/svg">
<path fill-rule="evenodd" clip-rule="evenodd" d="M16.2756 7.55183C16.7084 7.59425 17.1162 7.78343 17.4298 8.09007L20.5277 11.1192C20.7104 11.2978 20.8551 11.5113 20.9542 11.7467C21.0534 11.9823 21.1048 12.2352 21.1048 12.4907V20.6244C21.1048 21.1332 20.9025 21.6211 20.5427 21.9809C20.1829 22.3407 19.6951 22.543 19.1862 22.543H10.8141C10.3053 22.543 9.81741 22.3407 9.4576 21.9809C9.09779 21.6211 8.89551 21.1332 8.89551 20.6244V9.46157C8.89551 8.95273 9.09779 8.46487 9.4576 8.10506C9.81741 7.74525 10.3053 7.54297 10.8141 7.54297H16.0889L16.2756 7.55183ZM10.8141 8.58948C10.5828 8.58948 10.3611 8.68143 10.1975 8.84498C10.034 9.00853 9.94202 9.23028 9.94202 9.46157V20.6244C9.94202 20.8557 10.034 21.0774 10.1975 21.241C10.3611 21.4045 10.5828 21.4965 10.8141 21.4965H19.1862C19.4175 21.4965 19.6393 21.4045 19.8028 21.241C19.9664 21.0774 20.0583 20.8557 20.0583 20.6244V12.7755H17.7909C17.282 12.7755 16.7942 12.5732 16.4343 12.2134C16.0745 11.8536 15.8723 11.3658 15.8723 10.8569V8.58948H10.8141ZM16.9188 10.8569C16.9188 11.0882 17.0107 11.31 17.1743 11.4735C17.3378 11.6371 17.5596 11.729 17.7909 11.729H19.6543L16.9188 9.05346V10.8569Z" fill="#ABFF70"/>
<path fill-rule="evenodd" clip-rule="evenodd" d="M10.8141 8.58948C10.5828 8.58948 10.3611 8.68143 10.1975 8.84498C10.034 9.00853 9.94202 9.23028 9.94202 9.46157V20.6244C9.94202 20.8557 10.034 21.0774 10.1975 21.241C10.3611 21.4045 10.5828 21.4965 10.8141 21.4965H19.1862C19.4175 21.4965 19.6393 21.4045 19.8028 21.241C19.9664 21.0774 20.0583 20.8557 20.0583 20.6244V12.7755H17.7909C17.282 12.7755 16.7942 12.5732 16.4343 12.2134C16.0745 11.8536 15.8723 11.3658 15.8723 10.8569V8.58948H10.8141Z" fill="#ABFF70"/>
<path d="M16.9188 10.8569C16.9188 11.0882 17.0107 11.31 17.1743 11.4735C17.3378 11.6371 17.5596 11.729 17.7909 11.729H19.6543L16.9188 9.05346V10.8569Z" fill="#ABFF70"/>
</svg>
