<svg width="30" height="30" viewBox="0 0 30 30" fill="none" xmlns="http://www.w3.org/2000/svg">
<path d="M16.5 18V15V10.5C16.5 10.1022 16.342 9.72064 16.0607 9.43934C15.7794 9.15804 15.3978 9 15 9H9.75C9.35218 9 8.97064 9.15804 8.68934 9.43934C8.40804 9.72064 8.25 10.1022 8.25 10.5V19.5C8.25 19.8978 8.40804 20.2794 8.68934 20.5607C8.97064 20.842 9.35218 21 9.75 21H15C15.3978 21 15.7794 20.842 16.0607 20.5607C16.342 20.2794 16.5 19.8978 16.5 19.5V18Z" fill="#ABFF70"/>
<path d="M12.75 15H16.5M21.75 15L19.5 12.75M21.75 15L19.5 17.25M21.75 15H16.5M16.5 15V18V19.5C16.5 19.8978 16.342 20.2794 16.0607 20.5607C15.7794 20.842 15.3978 21 15 21H9.75C9.35218 21 8.97064 20.842 8.68934 20.5607C8.40804 20.2794 8.25 19.8978 8.25 19.5V10.5C8.25 10.1022 8.40804 9.72064 8.68934 9.43934C8.97064 9.15804 9.35218 9 9.75 9H15C15.3978 9 15.7794 9.15804 16.0607 9.43934C16.342 9.72064 16.5 10.1022 16.5 10.5V15Z" stroke="#ABFF70" stroke-width="1.125" stroke-linecap="round" stroke-linejoin="round"/>
</svg>
