<svg width="30" height="30" viewBox="0 0 30 30" fill="none" xmlns="http://www.w3.org/2000/svg">
<path d="M12.6053 8.25H9.699C9.50866 8.2498 9.32015 8.28715 9.14426 8.3599C8.96837 8.43265 8.80855 8.53937 8.67396 8.67396C8.53937 8.80855 8.43265 8.96837 8.3599 9.14426C8.28715 9.32015 8.2498 9.50866 8.25 9.699V12.6053C8.2496 12.9904 8.4019 13.3599 8.67351 13.6329C8.94512 13.906 9.31389 14.0602 9.699 14.0618H12.6053C12.7966 14.0619 12.9861 14.0244 13.1629 13.9513C13.3397 13.8782 13.5003 13.7709 13.6356 13.6356C13.7709 13.5003 13.8782 13.3397 13.9513 13.1629C14.0244 12.9861 14.0619 12.7966 14.0618 12.6053V9.699C14.0602 9.31389 13.906 8.94512 13.6329 8.67351C13.3599 8.4019 12.9904 8.2496 12.6053 8.25ZM20.676 8.25H17.7698C17.3846 8.2496 17.0151 8.4019 16.7421 8.67351C16.469 8.94512 16.3148 9.31389 16.3133 9.699V12.6053C16.3134 12.9915 16.467 13.3618 16.7401 13.6349C17.0132 13.908 17.3835 14.0616 17.7698 14.0618H20.676C21.0611 14.0602 21.4299 13.906 21.7015 13.6329C21.9731 13.3599 22.1254 12.9904 22.125 12.6053V9.699C22.1252 9.50866 22.0879 9.32015 22.0151 9.14426C21.9424 8.96837 21.8356 8.80855 21.701 8.67396C21.5664 8.53937 21.4066 8.43265 21.2307 8.3599C21.0549 8.28715 20.8663 8.2498 20.676 8.25ZM20.676 16.3125H17.7698C17.3845 16.3121 17.0148 16.4645 16.7418 16.7363C16.4688 17.008 16.3146 17.377 16.3133 17.7623V20.6685C16.3131 20.8598 16.3506 21.0493 16.4237 21.2261C16.4968 21.4029 16.6041 21.5636 16.7394 21.6988C16.8747 21.8341 17.0353 21.9414 17.2121 22.0145C17.3889 22.0877 17.5784 22.1252 17.7698 22.125H20.676C21.0611 22.1234 21.4299 21.9692 21.7015 21.6962C21.9731 21.4232 22.1254 21.0536 22.125 20.6685V17.7623C22.1252 17.5719 22.0879 17.3834 22.0151 17.2075C21.9424 17.0316 21.8356 16.8718 21.701 16.7372C21.5664 16.6026 21.4066 16.4959 21.2307 16.4231C21.0549 16.3504 20.8663 16.3131 20.676 16.3133M12.6053 16.3125H9.699C9.31395 16.3147 8.9454 16.4692 8.6739 16.7422C8.40239 17.0153 8.24999 17.3847 8.25 17.7698V20.676C8.2498 20.8663 8.28715 21.0549 8.3599 21.2307C8.43265 21.4066 8.53937 21.5664 8.67396 21.701C8.80855 21.8356 8.96837 21.9424 9.14426 22.0151C9.32015 22.0879 9.50866 22.1252 9.699 22.125H12.6053C12.9904 22.1254 13.3599 21.9731 13.6329 21.7015C13.906 21.4299 14.0602 21.0611 14.0618 20.676V17.7698C14.0619 17.5784 14.0244 17.3889 13.9513 17.2121C13.8782 17.0353 13.7709 16.8747 13.6356 16.7394C13.5003 16.6041 13.3397 16.4968 13.1629 16.4237C12.9861 16.3506 12.7966 16.3131 12.6053 16.3133" fill="#ABFF70"/>
<path d="M20.676 16.3125H17.7698C17.3845 16.3121 17.0148 16.4645 16.7418 16.7363C16.4688 17.008 16.3146 17.377 16.3133 17.7623V20.6685C16.3131 20.8598 16.3506 21.0493 16.4237 21.2261C16.4968 21.4029 16.6041 21.5636 16.7394 21.6988C16.8747 21.8341 17.0353 21.9414 17.2121 22.0145C17.3889 22.0877 17.5784 22.1252 17.7698 22.125H20.676C21.0611 22.1234 21.4299 21.9692 21.7015 21.6962C21.9731 21.4232 22.1254 21.0536 22.125 20.6685V17.7623C22.1252 17.5719 22.0879 17.3834 22.0151 17.2075C21.9424 17.0316 21.8356 16.8718 21.701 16.7372C21.5664 16.6026 21.4066 16.4959 21.2307 16.4231C21.0549 16.3504 20.8663 16.3131 20.676 16.3133M12.6053 16.3125H9.699C9.31395 16.3147 8.9454 16.4692 8.6739 16.7422C8.40239 17.0153 8.24999 17.3847 8.25 17.7698V20.676C8.2498 20.8663 8.28715 21.0549 8.3599 21.2307C8.43265 21.4066 8.53937 21.5664 8.67396 21.701C8.80855 21.8356 8.96837 21.9424 9.14426 22.0151C9.32015 22.0879 9.50866 22.1252 9.699 22.125H12.6053C12.9904 22.1254 13.3599 21.9731 13.6329 21.7015C13.906 21.4299 14.0602 21.0611 14.0618 20.676V17.7698C14.0619 17.5784 14.0244 17.3889 13.9513 17.2121C13.8782 17.0353 13.7709 16.8747 13.6356 16.7394C13.5003 16.6041 13.3397 16.4968 13.1629 16.4237C12.9861 16.3506 12.7966 16.3131 12.6053 16.3133M12.6053 8.25H9.699C9.50866 8.2498 9.32015 8.28715 9.14426 8.3599C8.96837 8.43265 8.80855 8.53937 8.67396 8.67396C8.53937 8.80855 8.43265 8.96837 8.3599 9.14426C8.28715 9.32015 8.2498 9.50866 8.25 9.699V12.6053C8.2496 12.9904 8.4019 13.3599 8.67351 13.6329C8.94512 13.906 9.31389 14.0602 9.699 14.0618H12.6053C12.7966 14.0619 12.9861 14.0244 13.1629 13.9513C13.3397 13.8782 13.5003 13.7709 13.6356 13.6356C13.7709 13.5003 13.8782 13.3397 13.9513 13.1629C14.0244 12.9861 14.0619 12.7966 14.0618 12.6053V9.699C14.0602 9.31389 13.906 8.94512 13.6329 8.67351C13.3599 8.4019 12.9904 8.2496 12.6053 8.25ZM20.676 8.25H17.7698C17.3846 8.2496 17.0151 8.4019 16.7421 8.67351C16.469 8.94512 16.3148 9.31389 16.3133 9.699V12.6053C16.3134 12.9915 16.467 13.3618 16.7401 13.6349C17.0132 13.908 17.3835 14.0616 17.7698 14.0618H20.676C21.0611 14.0602 21.4299 13.906 21.7015 13.6329C21.9731 13.3599 22.1254 12.9904 22.125 12.6053V9.699C22.1252 9.50866 22.0879 9.32015 22.0151 9.14426C21.9424 8.96837 21.8356 8.80855 21.701 8.67396C21.5664 8.53937 21.4066 8.43265 21.2307 8.3599C21.0549 8.28715 20.8663 8.2498 20.676 8.25Z" stroke="#ABFF70" stroke-width="1.125" stroke-linecap="round" stroke-linejoin="round"/>
</svg>
